<svg xmlns="http://www.w3.org/2000/svg" version="1.1" xmlns:xlink="http://www.w3.org/1999/xlink" xmlns:svgjs="http://svgjs.dev/svgjs" width="2000" height="888" viewBox="0 0 2000 888"><g transform="matrix(1,0,0,1,-1.2121212121213603,-1.1310452114730651)"><svg viewBox="0 0 396 176" data-background-color="#ffffff" preserveAspectRatio="xMidYMid meet" height="888" width="2000" xmlns="http://www.w3.org/2000/svg" xmlns:xlink="http://www.w3.org/1999/xlink"><g id="tight-bounds" transform="matrix(1,0,0,1,0.24000000000003752,0.2241711229946617)"><svg viewBox="0 0 395.5199999999999 175.55165775401068" height="175.55165775401068" width="395.5199999999999"><g><svg viewBox="0 0 395.5199999999999 175.55165775401068" height="175.55165775401068" width="395.5199999999999"><g><svg viewBox="0 0 395.5199999999999 175.55165775401068" height="175.55165775401068" width="395.5199999999999"><g id="textblocktransform"><svg viewBox="0 0 395.5199999999999 175.55165775401068" height="175.55165775401068" width="395.5199999999999" id="textblock"><g><svg viewBox="0 0 395.5199999999999 175.55165775401068" height="175.55165775401068" width="395.5199999999999"><g transform="matrix(1,0,0,1,0,0)"><svg width="395.5199999999999" viewBox="2.0999999999999996 -40.5 94.44000000000001 41.5" height="175.55165775401068" data-palette-color="#ffffff"><g class="wordmark-text-0" data-fill-palette-color="primary" id="text-0"><path d="M34.85-13.4L34.85-13.4 34.85-31.5Q34.85-35.45 34.65-37.35L34.65-37.35 30-37.95Q29.7-38.85 30-39.75L30-39.75Q33.15-39.6 36.1-39.6L36.1-39.6Q39.35-39.6 42.15-39.8L42.15-39.8Q42.35-38.7 42.15-37.95L42.15-37.95 37.6-37.45 37.6 0 34.95 0 12.9-29.85Q11.35-31.9 9.25-35.2L9.25-35.2Q9.5-32.9 9.5-29.65L9.5-29.65 9.5-8.15Q9.5-4.2 9.7-2.3L9.7-2.3 14.35-1.7Q14.65-0.8 14.35 0.1L14.35 0.1Q10.05 0 8.25 0L8.25 0Q5.3 0 2.2 0.15L2.2 0.15Q2-0.95 2.2-1.7L2.2-1.7 6.75-2.2 6.75-31.65Q6.75-35.6 6.55-37.5L6.55-37.5 2.4-38.1Q2.1-38.95 2.4-39.8L2.4-39.8 12.2-39.8 32.25-12.5Q32.65-11.95 33.13-11.2 33.6-10.45 34.18-9.4 34.75-8.35 35.1-7.8L35.1-7.8Q34.85-10.8 34.85-13.4ZM49.6-5.55L49.6-5.55Q50.95-5.55 51.87-4.67 52.8-3.8 52.8-2.5L52.8-2.5Q52.8-1.2 51.87-0.28 50.95 0.65 49.65 0.65L49.65 0.65Q48.35 0.65 47.42-0.28 46.5-1.2 46.5-2.5L46.5-2.5Q46.5-3.8 47.4-4.67 48.3-5.55 49.6-5.55ZM62.05-6.65L62.05-6.65Q62.05-4.05 63-2.98 63.95-1.9 66-1.9L66-1.9Q67.5-1.9 69.32-2.83 71.15-3.75 72.7-5.5L72.7-5.5 72.7-13.3Q67.55-13 64.8-11.48 62.05-9.95 62.05-6.65ZM72.7-15.1L72.7-15.1 72.7-17.65Q72.7-21.9 71.72-23.83 70.75-25.75 68.5-25.75L68.5-25.75Q66.2-25.75 64.8-24.28 63.4-22.8 62.9-19.25L62.9-19.25Q61.3-18.9 60.55-18.9L60.55-18.9Q58.59-18.9 58.25-20.3L58.25-20.3Q58.25-23.7 61.2-25.7 64.14-27.7 68.55-27.7L68.55-27.7Q73.4-27.7 75.42-25.73 77.45-23.75 77.45-18.65L77.45-18.65 77.45-4.55Q77.45-3.3 77.59-2.4L77.59-2.4 81.55-1.9Q81.75-1.15 81.55 0L81.55 0Q78 0.15 74 0.7L74 0.7Q73.59 0.3 73.5-0.3L73.5-0.3 73.25-3.75Q69.09 1 64 1L64 1Q60.84 1 59.07-0.8 57.3-2.6 57.3-5.65L57.3-5.65Q57.3-10.25 61.47-12.6 65.65-14.95 72.7-15.1ZM92.39-18.6L92.39-18.6 92.39-2.55 96.44-1.8Q96.49-1.55 96.52-1.35 96.54-1.15 96.54-0.9L96.54-0.9Q96.54-0.65 96.52-0.38 96.49-0.1 96.44 0.2L96.44 0.2Q93.29 0.05 89.99 0.05L89.99 0.05Q88.84 0.05 87.22 0.08 85.59 0.1 83.49 0.15L83.49 0.15Q83.34-0.3 83.34-0.8L83.34-0.8Q83.34-1.25 83.49-1.8L83.49-1.8 87.44-2.35Q87.54-3.75 87.59-5.33 87.64-6.9 87.64-8.7L87.64-8.7 87.64-19.35Q87.64-22.65 87.49-24.25L87.49-24.25 83.54-24.75Q83.44-25 83.44-25.6L83.44-25.6Q83.44-25.85 83.44-26.1 83.44-26.35 83.54-26.65L83.54-26.65Q86.94-26.85 92.14-27.7L92.14-27.7Q92.59-27.2 92.64-26.7L92.64-26.7Q92.39-25.3 92.39-18.6ZM85.09-36.45L85.09-36.45Q84.99-36.7 84.99-36.98 84.99-37.25 84.99-37.5L84.99-37.5Q84.99-38.85 86.12-39.68 87.24-40.5 88.89-40.5L88.89-40.5Q90.44-40.5 91.42-39.58 92.39-38.65 92.39-37.05L92.39-37.05Q92.39-35.75 91.27-34.95 90.14-34.15 88.39-34.15L88.39-34.15Q87.19-34.15 86.27-34.75 85.34-35.35 85.09-36.45Z" fill="#ffffff" data-fill-palette-color="primary"></path></g></svg></g></svg></g></svg></g></svg></g></svg></g><defs></defs></svg><rect width="395.5199999999999" height="175.55165775401068" fill="none" stroke="none" visibility="hidden"></rect></g></svg></g></svg>